<?xml version="1.0" encoding="UTF-8" standalone="no"?>
<!-- Generator: Adobe Illustrator 22.0.1, SVG Export Plug-In . SVG Version: 6.00 Build 0)  -->

<svg
   version="1.1"
   id="Layer_1"
   x="0px"
   y="0px"
   viewBox="0 0 10.808899 13.892807"
   xml:space="preserve"
   sodipodi:docname="wi-raindrop-40.svg"
   width="10.808899"
   height="13.892807"
   xmlns:inkscape="http://www.inkscape.org/namespaces/inkscape"
   xmlns:sodipodi="http://sodipodi.sourceforge.net/DTD/sodipodi-0.dtd"
   xmlns="http://www.w3.org/2000/svg"
   xmlns:svg="http://www.w3.org/2000/svg"><sodipodi:namedview
   id="namedview1"
   pagecolor="#505050"
   bordercolor="#eeeeee"
   borderopacity="1"
   inkscape:showpageshadow="0"
   inkscape:pageopacity="0"
   inkscape:pagecheckerboard="0"
   inkscape:deskcolor="#505050" /><defs
   id="defs1" />
<path
   d="m 9.81,15.25 c -0.064925,2.769304 2.468422,5.257408 5.230706,5.185653 2.666041,0.0094 5.147937,-2.29458 5.193067,-4.987594 0.02077,-1.594084 -0.770772,-3.058731 -1.599589,-4.369477 C 17.586775,9.5742823 16.298195,8.2573477 15.01,6.96 13.59092,8.3765636 12.114292,9.785004 11.142519,11.563947 10.490619,12.691534 9.8442165,13.919061 9.81,15.25 Z"
   id="path1"
   style="font-variation-settings:normal;opacity:1;vector-effect:none;fill:none;fill-opacity:1;stroke:#000000;stroke-width:1;stroke-linecap:butt;stroke-linejoin:miter;stroke-miterlimit:4;stroke-dasharray:none;stroke-dashoffset:0;stroke-opacity:1;-inkscape-stroke:none;stop-color:#000000;stop-opacity:1"
   transform="matrix(0.94603808,0,0,0.94603808,-8.8064289,-5.9145959)" />
<path
   style="font-variation-settings:normal;opacity:1;vector-effect:none;fill:#000000;fill-opacity:1;stroke:none;stroke-width:1;stroke-linecap:butt;stroke-linejoin:miter;stroke-miterlimit:4;stroke-dasharray:none;stroke-dashoffset:0;stroke-opacity:1;-inkscape-stroke:none"
   d="m 19.669967,14.092409 -9.306931,-0.09901 c 0,0 -0.693069,6.006601 4.323433,6.006601 5.016501,0 5.181518,-4.653465 4.983498,-5.907591 z"
   id="path2"
   transform="matrix(1,0,0,0.81868133,-9.6171989,-3.0216059)" /></svg>
