<svg width="223" height="30" viewBox="0 0 223 30" fill="none" xmlns="http://www.w3.org/2000/svg">
<path d="M0 29.573V1.36364H10.8471C13.0693 1.36364 14.9336 1.74013 16.4402 2.49311C17.9561 3.2461 19.1002 4.30211 19.8723 5.66116C20.6538 7.01102 21.0445 8.58586 21.0445 10.3857C21.0445 12.1947 20.6491 13.7649 19.8581 15.0964C19.0766 16.4187 17.9232 17.4426 16.3978 18.168C14.8724 18.8843 12.9986 19.2424 10.7765 19.2424H3.05075V15H10.0703C11.3697 15 12.4337 14.8255 13.2623 14.4766C14.0909 14.1185 14.7029 13.5996 15.0984 12.9201C15.5033 12.2314 15.7057 11.3866 15.7057 10.3857C15.7057 9.38476 15.5033 8.53076 15.0984 7.82369C14.6935 7.10744 14.0768 6.56566 13.2482 6.19835C12.4196 5.82186 11.3509 5.63361 10.0421 5.63361H5.23995V29.573H0ZM14.943 16.7906L22.1038 29.573H16.2565L9.22287 16.7906H14.943Z" fill="#1E1E1E"/>
<path d="M29.8959 30C28.5212 30 27.283 29.7613 26.1814 29.2837C25.0891 28.7971 24.2229 28.0808 23.5826 27.135C22.9517 26.1892 22.6363 25.023 22.6363 23.6364C22.6363 22.4426 22.8623 21.4555 23.3142 20.6749C23.7662 19.8944 24.3829 19.27 25.1645 18.8017C25.946 18.3333 26.8264 17.9798 27.8056 17.741C28.7943 17.4931 29.8159 17.3141 30.8705 17.2039C32.1416 17.0753 33.1727 16.9605 33.9636 16.8595C34.7546 16.7493 35.3289 16.584 35.6867 16.3636C36.0539 16.1341 36.2376 15.7805 36.2376 15.303V15.2204C36.2376 14.1827 35.9221 13.3792 35.2913 12.8099C34.6604 12.2406 33.7518 11.9559 32.5654 11.9559C31.313 11.9559 30.3197 12.2222 29.5852 12.7548C28.8602 13.2874 28.3706 13.9164 28.1163 14.6419L23.3425 13.9807C23.7191 12.6951 24.3406 11.6208 25.2068 10.7576C26.0731 9.88522 27.1324 9.23324 28.3847 8.80165C29.637 8.36088 31.0211 8.1405 32.5371 8.1405C33.5823 8.1405 34.6227 8.25987 35.6585 8.49862C36.6942 8.73737 37.6405 9.13223 38.4974 9.6832C39.3542 10.225 40.0416 10.9642 40.5595 11.9008C41.0867 12.8375 41.3504 14.0083 41.3504 15.4132V29.573H36.4353V26.6667H36.2658C35.9551 27.2544 35.5172 27.8053 34.9523 28.3196C34.3967 28.8246 33.6953 29.2332 32.8478 29.5455C32.0098 29.8485 31.0259 30 29.8959 30ZM31.2236 26.3361C32.2499 26.3361 33.1397 26.1387 33.893 25.7438C34.6463 25.3398 35.2253 24.8072 35.6302 24.146C36.0445 23.4849 36.2517 22.764 36.2517 21.9835V19.4904C36.0916 19.6189 35.8185 19.7383 35.4325 19.8485C35.0559 19.9587 34.6321 20.0551 34.1613 20.1377C33.6906 20.2204 33.2245 20.2938 32.7631 20.3581C32.3017 20.4224 31.9015 20.4775 31.5626 20.5234C30.7999 20.6244 30.1172 20.7897 29.5146 21.0193C28.912 21.2489 28.4365 21.5702 28.0881 21.9835C27.7397 22.3875 27.5655 22.9109 27.5655 23.5537C27.5655 24.472 27.9092 25.1653 28.5966 25.6336C29.2839 26.1019 30.1596 26.3361 31.2236 26.3361Z" fill="#1E1E1E"/>
<path d="M44.5028 29.573V8.41598H49.6157V29.573H44.5028ZM47.0734 5.41322C46.2636 5.41322 45.5668 5.15152 44.983 4.6281C44.3993 4.0955 44.1074 3.4573 44.1074 2.7135C44.1074 1.96051 44.3993 1.32231 44.983 0.798897C45.5668 0.266299 46.2636 0 47.0734 0C47.8926 0 48.5893 0.266299 49.1637 0.798897C49.7475 1.32231 50.0394 1.96051 50.0394 2.7135C50.0394 3.4573 49.7475 4.0955 49.1637 4.6281C48.5893 5.15152 47.8926 5.41322 47.0734 5.41322Z" fill="#1E1E1E"/>
<path d="M57.9975 17.1763V29.573H52.8846V8.41598H57.7715V12.011H58.0257C58.5247 10.8264 59.3204 9.88522 60.4126 9.18733C61.5143 8.48944 62.8749 8.1405 64.4944 8.1405C65.9916 8.1405 67.2957 8.45271 68.4067 9.07713C69.5272 9.70156 70.3935 10.6061 71.0055 11.7906C71.627 12.9752 71.933 14.4123 71.9236 16.1019V29.573H66.8107V16.8733C66.8107 15.4591 66.4341 14.3526 65.6808 13.5537C64.937 12.7548 63.9059 12.3554 62.5877 12.3554C61.6932 12.3554 60.8976 12.5482 60.2008 12.9339C59.5134 13.3104 58.972 13.8568 58.5765 14.573C58.1905 15.2893 57.9975 16.157 57.9975 17.1763Z" fill="#1E1E1E"/>
<path d="M92.4724 29.9862C90.3538 29.9862 88.5177 29.5317 86.9641 28.6226C85.4104 27.7135 84.2052 26.4417 83.3483 24.8072C82.5009 23.1726 82.0772 21.2626 82.0772 19.0771C82.0772 16.8916 82.5009 14.977 83.3483 13.3333C84.2052 11.6896 85.4104 10.4132 86.9641 9.50413C88.5177 8.59504 90.3538 8.1405 92.4724 8.1405C94.5909 8.1405 96.427 8.59504 97.9807 9.50413C99.5343 10.4132 100.735 11.6896 101.582 13.3333C102.439 14.977 102.868 16.8916 102.868 19.0771C102.868 21.2626 102.439 23.1726 101.582 24.8072C100.735 26.4417 99.5343 27.7135 97.9807 28.6226C96.427 29.5317 94.5909 29.9862 92.4724 29.9862ZM92.5006 25.9917C93.6493 25.9917 94.6098 25.6841 95.3819 25.0689C96.154 24.4444 96.7283 23.6088 97.105 22.562C97.491 21.5152 97.6841 20.3489 97.6841 19.0634C97.6841 17.7686 97.491 16.5978 97.105 15.551C96.7283 14.495 96.154 13.6547 95.3819 13.0303C94.6098 12.4059 93.6493 12.0937 92.5006 12.0937C91.3236 12.0937 90.3444 12.4059 89.5628 13.0303C88.7907 13.6547 88.2117 14.495 87.8256 15.551C87.449 16.5978 87.2607 17.7686 87.2607 19.0634C87.2607 20.3489 87.449 21.5152 87.8256 22.562C88.2117 23.6088 88.7907 24.4444 89.5628 25.0689C90.3444 25.6841 91.3236 25.9917 92.5006 25.9917Z" fill="#1E1E1E"/>
<path d="M105.218 29.573V8.41598H110.176V11.9421H110.402C110.797 10.7208 111.475 9.77962 112.436 9.11846C113.406 8.44812 114.512 8.11295 115.755 8.11295C116.037 8.11295 116.353 8.12672 116.701 8.15427C117.059 8.17264 117.356 8.20478 117.591 8.25069V12.8375C117.374 12.764 117.031 12.6997 116.56 12.6446C116.098 12.5803 115.651 12.5482 115.218 12.5482C114.286 12.5482 113.448 12.7456 112.704 13.1405C111.97 13.5262 111.391 14.0634 110.967 14.7521C110.543 15.4408 110.331 16.2351 110.331 17.135V29.573H105.218Z" fill="#1E1E1E"/>
<path d="M142.822 9.11846C142.69 7.91552 142.134 6.97888 141.155 6.30854C140.185 5.6382 138.924 5.30303 137.37 5.30303C136.278 5.30303 135.341 5.46373 134.559 5.78513C133.778 6.10652 133.18 6.5427 132.766 7.09366C132.351 7.64463 132.139 8.27365 132.13 8.98072C132.13 9.56841 132.267 10.0781 132.54 10.5096C132.822 10.9412 133.203 11.3085 133.684 11.6116C134.164 11.9054 134.696 12.1534 135.28 12.3554C135.863 12.5574 136.452 12.7273 137.045 12.865L139.757 13.5262C140.849 13.7741 141.899 14.1093 142.906 14.5317C143.923 14.9541 144.832 15.4867 145.632 16.1295C146.442 16.7723 147.082 17.5482 147.553 18.4573C148.024 19.3664 148.259 20.4316 148.259 21.6529C148.259 23.3058 147.826 24.7613 146.96 26.0193C146.094 27.2681 144.841 28.2461 143.203 28.9532C141.574 29.6511 139.602 30 137.285 30C135.035 30 133.081 29.6602 131.424 28.9807C129.776 28.3012 128.486 27.3095 127.554 26.0055C126.631 24.7016 126.132 23.1129 126.057 21.2397H131.212C131.287 22.2222 131.598 23.0395 132.144 23.6915C132.69 24.3434 133.401 24.8301 134.277 25.1515C135.162 25.4729 136.151 25.6336 137.243 25.6336C138.382 25.6336 139.38 25.4683 140.237 25.1377C141.103 24.798 141.781 24.3297 142.271 23.7328C142.761 23.1267 143.01 22.4197 143.019 21.6116C143.01 20.877 142.789 20.2709 142.356 19.7934C141.923 19.3067 141.315 18.9027 140.534 18.5813C139.762 18.2507 138.858 17.9568 137.822 17.6997L134.531 16.8733C132.149 16.2764 130.266 15.3719 128.882 14.1598C127.507 12.9385 126.819 11.3177 126.819 9.29752C126.819 7.63544 127.281 6.17998 128.204 4.93113C129.136 3.68228 130.402 2.7135 132.003 2.02479C133.604 1.32691 135.416 0.977961 137.441 0.977961C139.493 0.977961 141.292 1.32691 142.836 2.02479C144.39 2.7135 145.609 3.6731 146.494 4.90358C147.379 6.12489 147.836 7.52984 147.864 9.11846H142.822Z" fill="#1E1E1E"/>
<path d="M155.829 17.1763V29.573H150.716V1.36364H155.716V12.011H155.97C156.479 10.8173 157.265 9.87603 158.329 9.18733C159.402 8.48944 160.768 8.1405 162.425 8.1405C163.931 8.1405 165.245 8.44812 166.366 9.06336C167.486 9.6786 168.352 10.5785 168.964 11.7631C169.586 12.9477 169.896 14.3939 169.896 16.1019V29.573H164.784V16.8733C164.784 15.45 164.407 14.3434 163.654 13.5537C162.91 12.7548 161.865 12.3554 160.518 12.3554C159.614 12.3554 158.805 12.5482 158.089 12.9339C157.383 13.3104 156.827 13.8568 156.422 14.573C156.027 15.2893 155.829 16.157 155.829 17.1763Z" fill="#1E1E1E"/>
<path d="M173.12 29.573V8.41598H178.232V29.573H173.12ZM175.69 5.41322C174.88 5.41322 174.184 5.15152 173.6 4.6281C173.016 4.0955 172.724 3.4573 172.724 2.7135C172.724 1.96051 173.016 1.32231 173.6 0.798897C174.184 0.266299 174.88 0 175.69 0C176.509 0 177.206 0.266299 177.78 0.798897C178.364 1.32231 178.656 1.96051 178.656 2.7135C178.656 3.4573 178.364 4.0955 177.78 4.6281C177.206 5.15152 176.509 5.41322 175.69 5.41322Z" fill="#1E1E1E"/>
<path d="M186.614 17.1763V29.573H181.501V8.41598H186.388V12.011H186.642C187.141 10.8264 187.937 9.88522 189.029 9.18733C190.131 8.48944 191.492 8.1405 193.111 8.1405C194.608 8.1405 195.912 8.45271 197.023 9.07713C198.144 9.70156 199.01 10.6061 199.622 11.7906C200.244 12.9752 200.55 14.4123 200.54 16.1019V29.573H195.427V16.8733C195.427 15.4591 195.051 14.3526 194.298 13.5537C193.554 12.7548 192.523 12.3554 191.204 12.3554C190.31 12.3554 189.514 12.5482 188.817 12.9339C188.13 13.3104 187.589 13.8568 187.193 14.573C186.807 15.2893 186.614 16.157 186.614 17.1763Z" fill="#1E1E1E"/>
<path d="M213.353 29.9862C211.178 29.9862 209.3 29.5455 207.718 28.6639C206.146 27.7732 204.936 26.5152 204.088 24.8898C203.241 23.2553 202.817 21.3315 202.817 19.1185C202.817 16.9422 203.241 15.0321 204.088 13.3884C204.945 11.7355 206.141 10.45 207.676 9.53168C209.21 8.60423 211.014 8.1405 213.085 8.1405C214.422 8.1405 215.684 8.3517 216.87 8.7741C218.066 9.18733 219.121 9.83012 220.034 10.7025C220.957 11.5748 221.682 12.686 222.209 14.0358C222.736 15.3765 223 16.9743 223 18.8292V20.3581H205.218V16.9972H218.099C218.09 16.0422 217.878 15.1928 217.463 14.449C217.049 13.6961 216.47 13.1038 215.726 12.6722C214.992 12.2406 214.135 12.0248 213.156 12.0248C212.111 12.0248 211.192 12.2727 210.402 12.7686C209.611 13.2553 208.994 13.8981 208.551 14.697C208.118 15.4867 207.897 16.3545 207.887 17.3003V20.2342C207.887 21.4646 208.118 22.5207 208.58 23.4022C209.041 24.2746 209.686 24.9449 210.515 25.4132C211.343 25.8724 212.313 26.1019 213.424 26.1019C214.168 26.1019 214.841 26.0009 215.444 25.7989C216.046 25.5877 216.569 25.2801 217.011 24.876C217.454 24.472 217.788 23.9715 218.014 23.3747L222.788 23.8981C222.487 25.1286 221.912 26.2029 221.065 27.1212C220.227 28.0303 219.154 28.7374 217.845 29.2424C216.536 29.7383 215.039 29.9862 213.353 29.9862Z" fill="#1E1E1E"/>
</svg>
