<?xml version="1.0" encoding="UTF-8" standalone="no"?>
<!-- Generator: Adobe Illustrator 22.0.1, SVG Export Plug-In . SVG Version: 6.00 Build 0)  -->

<svg
   version="1.1"
   id="Layer_1"
   x="0px"
   y="0px"
   viewBox="0 0 24.649109 14.65683"
   xml:space="preserve"
   width="24.649109"
   height="14.65683"
   sodipodi:docname="wi-scale-9.svg"
   xmlns:inkscape="http://www.inkscape.org/namespaces/inkscape"
   xmlns:sodipodi="http://sodipodi.sourceforge.net/DTD/sodipodi-0.dtd"
   xmlns="http://www.w3.org/2000/svg"
   xmlns:svg="http://www.w3.org/2000/svg"><sodipodi:namedview
   id="namedview1"
   pagecolor="#505050"
   bordercolor="#eeeeee"
   borderopacity="1"
   inkscape:showpageshadow="0"
   inkscape:pageopacity="0"
   inkscape:pagecheckerboard="0"
   inkscape:deskcolor="#505050" /><defs
   id="defs1" />
<path
   d="M 15.015625,1.1679688 C 7.613671,1.0336888 0.51280529,5.8881424 -2.2597656,12.771484 c -0.1953249,0.475654 -0.3641647,0.962524 -0.5195313,1.453125 l 3.6308594,2.314453 C 1.3254316,14.551699 2.1892492,12.666501 3.4726562,11.056641 6.6122437,6.8897081 12.041601,4.6452457 17.181641,5.4824219 22.931421,6.2581391 27.818787,10.897517 29.197266,16.509766 l 3.568359,-2.275391 C 32.143091,12.247057 31.212889,10.358308 29.960938,8.6816406 26.517011,4.0052283 20.795542,1.1371183 15.015625,1.1679688 Z"
   style="display:inline"
   id="path10"
   transform="matrix(0.69346377,0,0,0.69346377,1.9273397,-0.80806528)" />
<path
   id="path2"
   style="display:inline"
   d="M 15.011931,7.0898438 C 13.419843,7.089725 11.31719,15.920287 11.110413,20.349609 c 0,0.6973 2.007126,1.540561 3.90684,1.523435 1.974056,-0.0178 3.842973,-0.92971 3.842973,-1.654297 C 18.653331,15.838846 16.596422,7.089962 15.011931,7.0898438 Z"
   transform="matrix(0.21960779,0.32000082,-0.57177064,0.39239053,20.76383,0.56936472)" /></svg>
