<?xml version="1.0" encoding="UTF-8" standalone="no"?>
<!-- Created with Inkscape (http://www.inkscape.org/) -->

<svg
   width="67.969658mm"
   height="67.969658mm"
   viewBox="0 0 67.969658 67.969658"
   version="1.1"
   id="svg1"
   xmlns:inkscape="http://www.inkscape.org/namespaces/inkscape"
   xmlns:sodipodi="http://sodipodi.sourceforge.net/DTD/sodipodi-0.dtd"
   xmlns="http://www.w3.org/2000/svg"
   xmlns:svg="http://www.w3.org/2000/svg">
  <sodipodi:namedview
     id="namedview1"
     pagecolor="#505050"
     bordercolor="#eeeeee"
     borderopacity="1"
     inkscape:showpageshadow="0"
     inkscape:pageopacity="0"
     inkscape:pagecheckerboard="0"
     inkscape:deskcolor="#505050"
     inkscape:document-units="mm" />
  <defs
     id="defs1" />
  <g
     inkscape:label="Layer 1"
     inkscape:groupmode="layer"
     id="layer1"
     transform="translate(-71.015222,-114.51541)">
    <path
       id="path17"
       style="fill:#000000;-inkscape-stroke:none"
       d="m 104.99979,48.411515 c -8.309985,0 -14.999599,7.075531 -14.999599,15.864665 V 99.561365 C 73.850893,104.53056 61.109599,117.30488 56.165047,133.49986 H 20.775993 c -8.789135,0 -15.8646649,6.69013 -15.8646649,15.00012 0,8.30999 7.0755289,15.00012 15.8646649,15.00012 h 35.389054 c 4.944552,16.19498 17.685846,28.96931 33.835144,33.93849 v 35.28519 c 0,8.78913 6.689614,15.86518 14.999599,15.86518 8.30999,0 15.00012,-7.07605 15.00012,-15.86518 v -35.28519 c 16.14918,-4.96928 28.89054,-17.74367 33.83514,-33.93849 h 35.38906 c 8.78913,0 15.86466,-6.69013 15.86466,-15.00012 0,-8.30999 -7.07553,-15.00012 -15.86466,-15.00012 h -35.38906 c -4.9446,-16.19482 -17.68596,-28.9692 -33.83514,-33.938495 V 64.27618 c 0,-8.789134 -6.69013,-15.864665 -15.00012,-15.864665 z m 0,78.252585 c 0.72648,0 1.44472,0.0354 2.15284,0.10491 0.70812,0.0695 1.40637,0.17288 2.0929,0.3085 0.68652,0.13563 1.36143,0.30333 2.02313,0.50178 0.6617,0.19846 1.30992,0.42778 1.94355,0.68575 0.63364,0.25797 1.25233,0.54469 1.85467,0.85886 0.60233,0.31417 1.18817,0.65563 1.75596,1.02268 0.5678,0.36705 1.11742,0.76006 1.64745,1.17667 0.53002,0.41661 1.0406,0.85696 1.52962,1.31982 0.29405,0.27832 0.58215,0.56268 0.86041,0.85679 0.46271,0.48905 0.90286,0.99955 1.3193,1.52962 0.41645,0.53005 0.80928,1.07962 1.17616,1.64745 0.36687,0.56783 0.70816,1.1536 1.02216,1.75596 0.314,0.60237 0.60053,1.22154 0.85834,1.85519 0.25782,0.63365 0.48691,1.28185 0.68523,1.94355 0.19833,0.6617 0.36574,1.33663 0.50126,2.02313 0.13553,0.6865 0.2391,1.38483 0.30851,2.0929 0.0694,0.70806 0.10491,1.42593 0.10491,2.15232 0,0.72638 -0.0355,1.44427 -0.10491,2.15232 -0.0694,0.70806 -0.17298,1.4064 -0.30851,2.0929 -0.13552,0.6865 -0.30293,1.36144 -0.50126,2.02313 -0.19832,0.66169 -0.42741,1.3099 -0.68523,1.94355 -0.25782,0.63365 -0.54434,1.25283 -0.85834,1.85519 -0.314,0.60236 -0.65529,1.18812 -1.02216,1.75596 -0.36688,0.56784 -0.75972,1.11737 -1.17616,1.64745 -0.41644,0.53005 -0.8566,1.04056 -1.3193,1.52962 -0.27826,0.29412 -0.56636,0.57845 -0.86041,0.85679 -0.48902,0.46288 -0.99908,0.9037 -1.52911,1.32034 -0.53001,0.41663 -1.08016,0.80907 -1.64796,1.17615 -0.56779,0.36708 -1.15363,0.70848 -1.75596,1.02268 -0.60233,0.3142 -1.22104,0.60138 -1.85467,0.85938 -0.63363,0.25799 -1.28185,0.48675 -1.94355,0.68523 -0.6617,0.19847 -1.3366,0.36665 -2.02313,0.50229 -0.68653,0.13564 -1.38477,0.23903 -2.0929,0.30851 -0.70812,0.0695 -1.42635,0.1049 -2.15284,0.1049 -0.72646,0 -1.44474,-0.0354 -2.15284,-0.1049 -0.7081,-0.0695 -1.40587,-0.17289 -2.09238,-0.30851 -0.6865,-0.13562 -1.361451,-0.30384 -2.023129,-0.50229 -0.661674,-0.19846 -1.31046,-0.42726 -1.944067,-0.68523 -0.633611,-0.25798 -1.252357,-0.5447 -1.854667,-0.85887 -0.602308,-0.31415 -1.188191,-0.65562 -1.755965,-1.02267 -0.567772,-0.36705 -1.117443,-0.76006 -1.647445,-1.17667 -0.530003,-0.41661 -1.040108,-0.85697 -1.529106,-1.31982 -0.294228,-0.2785 -0.582506,-0.563 -0.860929,-0.85731 -0.462669,-0.48905 -0.902891,-0.99957 -1.319299,-1.52962 -0.416409,-0.53008 -0.808795,-1.07961 -1.175639,-1.64745 -0.366845,-0.56784 -0.708189,-1.15412 -1.02216,-1.75648 -0.313973,-0.60237 -0.600555,-1.22102 -0.858346,-1.85467 -0.257793,-0.63365 -0.486924,-1.28186 -0.685229,-1.94355 -0.198305,-0.66169 -0.366266,-1.33664 -0.501778,-2.02313 -0.135512,-0.6865 -0.238584,-1.38485 -0.307992,-2.0929 -0.06941,-0.70805 -0.104903,-1.42595 -0.104903,-2.15232 0,-0.72639 0.03549,-1.44426 0.104903,-2.15232 0.06942,-0.70807 0.172984,-1.4064 0.308508,-2.0929 0.135527,-0.6865 0.302938,-1.36143 0.501262,-2.02313 0.198326,-0.6617 0.427412,-1.30991 0.685229,-1.94355 0.257815,-0.63365 0.544347,-1.25283 0.858346,-1.85519 0.314,-0.60235 0.655286,-1.18813 1.02216,-1.75596 0.366873,-0.56783 0.759718,-1.1174 1.176155,-1.64745 0.416441,-0.53006 0.856602,-1.04057 1.3193,-1.52962 0.278256,-0.2941 0.566374,-0.57846 0.860412,-0.85679 0.488998,-0.46285 0.999106,-0.90321 1.529106,-1.31982 0.529999,-0.41661 1.079675,-0.80962 1.647445,-1.17667 0.567771,-0.36705 1.15366,-0.70851 1.755965,-1.02268 0.602307,-0.31417 1.221058,-0.60089 1.854667,-0.85886 0.633607,-0.25797 1.282393,-0.48677 1.944067,-0.68523 0.661676,-0.19846 1.336629,-0.36667 2.023129,-0.5023 0.68651,-0.13562 1.38428,-0.23903 2.09238,-0.3085 0.70811,-0.0695 1.42637,-0.10491 2.15284,-0.10491 z"
       transform="matrix(0.33954703,0,0,0.33954703,69.347594,98.077423)" />
  </g>
</svg>
